
<global>
amp_veltrack=0
ampeg_release=3.50
</global>

<group>
group_label=RR1_85-127
seq_length=4
seq_position=1
xf_cccurve=gain
xfin_hicc1=127
xfin_locc1=85
xfout_hicc1=127
xfout_locc1=127

<region>
hikey=a#2
hivel=127
lokey=a2
lovel=0
pitch_keycenter=a#2
sample=Cellos_pizzicato_FF_A#2_RR1.opus
</region>

<region>
hikey=a#3
hivel=127
lokey=a3
lovel=0
pitch_keycenter=a#3
sample=Cellos_pizzicato_FF_A#3_RR1.opus
</region>

<region>
hikey=a#4
hivel=127
lokey=a4
lovel=0
pitch_keycenter=a#4
sample=Cellos_pizzicato_FF_A#4_RR1.opus
</region>

<region>
hivel=127
key=c2
lovel=0
sample=Cellos_pizzicato_FF_C2_RR1.opus
</region>

<region>
hikey=c3
hivel=127
lokey=b2
lovel=0
offset=60
pitch_keycenter=c3
sample=Cellos_pizzicato_FF_C3_RR1.opus
</region>

<region>
hikey=c4
hivel=127
lokey=b3
lovel=0
pitch_keycenter=c4
sample=Cellos_pizzicato_FF_C4_RR1.opus
</region>

<region>
hikey=c5
hivel=127
lokey=b4
lovel=0
pitch_keycenter=c5
sample=Cellos_pizzicato_FF_C5_RR1.opus
</region>

<region>
hikey=d2
hivel=127
lokey=c#2
lovel=0
pitch_keycenter=d2
sample=Cellos_pizzicato_FF_D2_RR1.opus
</region>

<region>
hikey=d3
hivel=127
lokey=c#3
lovel=0
offset=13
pitch_keycenter=d3
sample=Cellos_pizzicato_FF_D3_RR1.opus
</region>

<region>
hikey=d4
hivel=127
lokey=c#4
lovel=0
pitch_keycenter=d4
sample=Cellos_pizzicato_FF_D4_RR1.opus
</region>

<region>
hikey=d5
hivel=127
lokey=c#5
lovel=0
pitch_keycenter=d5
sample=Cellos_pizzicato_FF_D5_RR1.opus
</region>

<region>
hikey=e2
hivel=127
lokey=d#2
lovel=0
pitch_keycenter=e2
sample=Cellos_pizzicato_FF_E2_RR1.opus
</region>

<region>
hikey=e3
hivel=127
lokey=d#3
lovel=0
pitch_keycenter=e3
sample=Cellos_pizzicato_FF_E3_RR1.opus
</region>

<region>
hikey=e4
hivel=127
lokey=d#4
lovel=0
pitch_keycenter=e4
sample=Cellos_pizzicato_FF_E4_RR1.opus
</region>

<region>
hikey=F6
hivel=127
lokey=d#5
lovel=0
pitch_keycenter=E5
sample=Cellos_pizzicato_FF_E5_RR1.opus
</region>

<region>
hikey=f#2
hivel=127
lokey=f2
lovel=0
pitch_keycenter=f#2
sample=Cellos_pizzicato_FF_F#2_RR1.opus
</region>

<region>
hikey=f#3
hivel=127
lokey=f3
lovel=0
pitch_keycenter=f#3
sample=Cellos_pizzicato_FF_F#3_RR1.opus
</region>

<region>
hikey=f#4
hivel=127
lokey=f4
lovel=0
pitch_keycenter=f#4
sample=Cellos_pizzicato_FF_F#4_RR1.opus
</region>

<region>
hikey=g#2
hivel=127
lokey=g2
lovel=0
pitch_keycenter=g#2
sample=Cellos_pizzicato_FF_G#2_RR1.opus
</region>

<region>
hikey=g#3
hivel=127
lokey=g3
lovel=0
pitch_keycenter=g#3
sample=Cellos_pizzicato_FF_G#3_RR1.opus
</region>

<region>
hikey=g#4
hivel=127
lokey=g4
lovel=0
pitch_keycenter=g#4
sample=Cellos_pizzicato_FF_G#4_RR1.opus
</region>
</group>

<group>
group_label=RR1_0-42
seq_length=4
seq_position=1
xf_cccurve=gain
xfin_hicc1=42
xfout_hicc1=84
xfout_locc1=42

<region>
hikey=a#2
hivel=127
lokey=a2
lovel=0
pitch_keycenter=a#2
sample=Cellos_pizzicato_PP_A#2_RR1.opus
</region>

<region>
hikey=a#3
hivel=127
lokey=a3
lovel=0
pitch_keycenter=a#3
sample=Cellos_pizzicato_PP_A#3_RR1.opus
</region>

<region>
hikey=a#4
hivel=127
lokey=a4
lovel=0
offset=3111
pitch_keycenter=a#4
sample=Cellos_pizzicato_PP_A#4_RR1.opus
</region>

<region>
hivel=127
key=c2
lovel=0
sample=Cellos_pizzicato_PP_C2_RR1.opus
</region>

<region>
hikey=c3
hivel=127
lokey=b2
lovel=0
pitch_keycenter=c3
sample=Cellos_pizzicato_PP_C3_RR1.opus
</region>

<region>
hikey=c4
hivel=127
lokey=b3
lovel=0
offset=2476
pitch_keycenter=c4
sample=Cellos_pizzicato_PP_C4_RR1.opus
</region>

<region>
hikey=c5
hivel=127
lokey=b4
lovel=0
offset=1950
pitch_keycenter=c5
sample=Cellos_pizzicato_PP_C5_RR1.opus
</region>

<region>
hikey=d2
hivel=127
lokey=c#2
lovel=0
offset=3160
pitch_keycenter=d2
sample=Cellos_pizzicato_PP_D2_RR1.opus
</region>

<region>
hikey=d3
hivel=127
lokey=c#3
lovel=0
pitch_keycenter=d3
sample=Cellos_pizzicato_PP_D3_RR1.opus
</region>

<region>
hikey=d4
hivel=127
lokey=c#4
lovel=0
offset=2530
pitch_keycenter=d4
sample=Cellos_pizzicato_PP_D4_RR1.opus
</region>

<region>
hikey=d5
hivel=127
lokey=c#5
lovel=0
offset=1852
pitch_keycenter=d5
sample=Cellos_pizzicato_PP_D5_RR1.opus
</region>

<region>
hikey=e2
hivel=127
lokey=d#2
lovel=0
pitch_keycenter=e2
sample=Cellos_pizzicato_PP_E2_RR1.opus
</region>

<region>
hikey=e3
hivel=127
lokey=d#3
lovel=0
pitch_keycenter=e3
sample=Cellos_pizzicato_PP_E3_RR1.opus
</region>

<region>
hikey=e4
hivel=127
lokey=d#4
lovel=0
offset=2424
pitch_keycenter=e4
sample=Cellos_pizzicato_PP_E4_RR1.opus
</region>

<region>
hikey=F6
hivel=127
lokey=d#5
lovel=0
offset=4305
pitch_keycenter=E5
sample=Cellos_pizzicato_PP_E5_RR1.opus
</region>

<region>
hikey=f#2
hivel=127
lokey=f2
lovel=0
pitch_keycenter=f#2
sample=Cellos_pizzicato_PP_F#2_RR1.opus
</region>

<region>
hikey=f#3
hivel=127
lokey=f3
lovel=0
offset=2967
pitch_keycenter=f#3
sample=Cellos_pizzicato_PP_F#3_RR1.opus
</region>

<region>
hikey=f#4
hivel=127
lokey=f4
lovel=0
pitch_keycenter=f#4
sample=Cellos_pizzicato_PP_F#4_RR1.opus
</region>

<region>
hikey=g#2
hivel=127
lokey=g2
lovel=0
offset=277
pitch_keycenter=g#2
sample=Cellos_pizzicato_PP_G#2_RR1.opus
</region>

<region>
hikey=g#3
hivel=127
lokey=g3
lovel=0
offset=273
pitch_keycenter=g#3
sample=Cellos_pizzicato_PP_G#3_RR1.opus
</region>

<region>
hikey=g#4
hivel=127
lokey=g4
lovel=0
offset=3681
pitch_keycenter=g#4
sample=Cellos_pizzicato_PP_G#4_RR1.opus
</region>
</group>

<group>
group_label=RR1_43-84
seq_length=4
seq_position=1
xf_cccurve=gain
xfin_hicc1=84
xfin_locc1=43
xfout_hicc1=125
xfout_locc1=84

<region>
hikey=a#2
hivel=127
lokey=a2
lovel=0
pitch_keycenter=a#2
sample=Cellos_pizzicato_MF_A#2_RR1.opus
</region>

<region>
hikey=a#3
hivel=127
lokey=a3
lovel=0
pitch_keycenter=a#3
sample=Cellos_pizzicato_MF_A#3_RR1.opus
</region>

<region>
hikey=a#4
hivel=127
lokey=a4
lovel=0
pitch_keycenter=a#4
sample=Cellos_pizzicato_MF_A#4_RR1.opus
</region>

<region>
hikey=c3
hivel=127
lokey=b2
lovel=0
pitch_keycenter=c3
sample=Cellos_pizzicato_MF_C3_RR1.opus
</region>

<region>
hikey=c4
hivel=127
lokey=b3
lovel=0
pitch_keycenter=c4
sample=Cellos_pizzicato_MF_C4_RR1.opus
</region>

<region>
hikey=c5
hivel=127
lokey=b4
lovel=0
offset=1938
pitch_keycenter=c5
sample=Cellos_pizzicato_MF_C5_RR1.opus
</region>

<region>
hikey=d3
hivel=127
lokey=c#3
lovel=0
pitch_keycenter=d3
sample=Cellos_pizzicato_MF_D3_RR1.opus
</region>

<region>
hikey=d4
hivel=127
lokey=c#4
lovel=0
pitch_keycenter=d4
sample=Cellos_pizzicato_MF_D4_RR1.opus
</region>

<region>
hikey=d5
hivel=127
lokey=c#5
lovel=0
offset=2447
pitch_keycenter=d5
sample=Cellos_pizzicato_MF_D5_RR1.opus
</region>

<region>
hikey=e3
hivel=127
lokey=d#3
lovel=0
pitch_keycenter=e3
sample=Cellos_pizzicato_MF_E3_RR1.opus
</region>

<region>
hikey=e4
hivel=127
lokey=d#4
lovel=0
pitch_keycenter=e4
sample=Cellos_pizzicato_MF_E4_RR1.opus
</region>

<region>
hikey=F6
hivel=127
lokey=d#5
lovel=0
offset=2611
pitch_keycenter=E5
sample=Cellos_pizzicato_MF_E5_RR1.opus
</region>

<region>
hikey=f#3
hivel=127
lokey=f3
lovel=0
pitch_keycenter=f#3
sample=Cellos_pizzicato_MF_F#3_RR1.opus
</region>

<region>
hikey=f#4
hivel=127
lokey=f4
lovel=0
pitch_keycenter=f#4
sample=Cellos_pizzicato_MF_F#4_RR1.opus
</region>

<region>
hikey=g#3
hivel=127
lokey=g3
lovel=0
pitch_keycenter=g#3
sample=Cellos_pizzicato_MF_G#3_RR1.opus
</region>

<region>
hikey=g#4
hivel=127
lokey=g4
lovel=0
pitch_keycenter=g#4
sample=Cellos_pizzicato_MF_G#4_RR1.opus
</region>

<region>
hivel=127
key=c2
lovel=0
sample=Cellos_pizzicato_MF_C2_RR1.opus
</region>

<region>
hikey=d2
hivel=127
lokey=c#2
lovel=0
offset=3280
pitch_keycenter=d2
sample=Cellos_pizzicato_MF_D2_RR1.opus
</region>

<region>
hikey=e2
hivel=127
lokey=d#2
lovel=0
pitch_keycenter=e2
sample=Cellos_pizzicato_MF_E2_RR1.opus
</region>

<region>
hikey=f#2
hivel=127
lokey=f2
lovel=0
pitch_keycenter=f#2
sample=Cellos_pizzicato_MF_F#2_RR1.opus
</region>

<region>
hikey=g#2
hivel=127
lokey=g2
lovel=0
pitch_keycenter=g#2
sample=Cellos_pizzicato_MF_G#2_RR1.opus
</region>
</group>

<group>
group_label=RR2_0-42
seq_length=4
seq_position=2
xf_cccurve=gain
xfin_hicc1=42
xfout_hicc1=84
xfout_locc1=42

<region>
hikey=a#2
hivel=127
lokey=a2
lovel=0
pitch_keycenter=a#2
sample=Cellos_pizzicato_PP_A#2_RR2.opus
</region>

<region>
hikey=a#3
hivel=127
lokey=a3
lovel=0
pitch_keycenter=a#3
sample=Cellos_pizzicato_PP_A#3_RR2.opus
</region>

<region>
hikey=a#4
hivel=127
lokey=a4
lovel=0
offset=2044
pitch_keycenter=a#4
sample=Cellos_pizzicato_PP_A#4_RR2.opus
</region>

<region>
hivel=127
key=c2
lovel=0
sample=Cellos_pizzicato_PP_C2_RR2.opus
</region>

<region>
hikey=c3
hivel=127
lokey=b2
lovel=0
pitch_keycenter=c3
sample=Cellos_pizzicato_PP_C3_RR2.opus
</region>

<region>
hikey=c4
hivel=127
lokey=b3
lovel=0
pitch_keycenter=c4
sample=Cellos_pizzicato_PP_C4_RR2.opus
</region>

<region>
hikey=c5
hivel=127
lokey=b4
lovel=0
offset=2934
pitch_keycenter=c5
sample=Cellos_pizzicato_PP_C5_RR2.opus
</region>

<region>
hikey=d2
hivel=127
lokey=c#2
lovel=0
pitch_keycenter=d2
sample=Cellos_pizzicato_PP_D2_RR2.opus
</region>

<region>
hikey=d3
hivel=127
lokey=c#3
lovel=0
offset=2326
pitch_keycenter=d3
sample=Cellos_pizzicato_PP_D3_RR2.opus
</region>

<region>
hikey=d4
hivel=127
lokey=c#4
lovel=0
offset=2225
pitch_keycenter=d4
sample=Cellos_pizzicato_PP_D4_RR2.opus
</region>

<region>
hikey=d5
hivel=127
lokey=c#5
lovel=0
offset=1964
pitch_keycenter=d5
sample=Cellos_pizzicato_PP_D5_RR2.opus
</region>

<region>
hikey=e2
hivel=127
lokey=d#2
lovel=0
offset=1463
pitch_keycenter=e2
sample=Cellos_pizzicato_PP_E2_RR2.opus
</region>

<region>
hikey=e3
hivel=127
lokey=d#3
lovel=0
pitch_keycenter=e3
sample=Cellos_pizzicato_PP_E3_RR2.opus
</region>

<region>
hikey=e4
hivel=127
lokey=d#4
lovel=0
pitch_keycenter=e4
sample=Cellos_pizzicato_PP_E4_RR2.opus
</region>

<region>
hikey=F6
hivel=127
lokey=d#5
lovel=0
offset=2087
pitch_keycenter=E5
sample=Cellos_pizzicato_PP_E5_RR2.opus
</region>

<region>
hikey=f#2
hivel=127
lokey=f2
lovel=0
offset=314
pitch_keycenter=f#2
sample=Cellos_pizzicato_PP_F#2_RR2.opus
</region>

<region>
hikey=f#3
hivel=127
lokey=f3
lovel=0
pitch_keycenter=f#3
sample=Cellos_pizzicato_PP_F#3_RR2.opus
</region>

<region>
hikey=f#4
hivel=127
lokey=f4
lovel=0
pitch_keycenter=f#4
sample=Cellos_pizzicato_PP_F#4_RR2.opus
</region>

<region>
hikey=g#2
hivel=127
lokey=g2
lovel=0
pitch_keycenter=g#2
sample=Cellos_pizzicato_PP_G#2_RR2.opus
</region>

<region>
hikey=g#3
hivel=127
lokey=g3
lovel=0
pitch_keycenter=g#3
sample=Cellos_pizzicato_PP_G#3_RR2.opus
</region>

<region>
hikey=g#4
hivel=127
lokey=g4
lovel=0
offset=283
pitch_keycenter=g#4
sample=Cellos_pizzicato_PP_G#4_RR2.opus
</region>
</group>

<group>
group_label=RR2_43-84
seq_length=4
seq_position=2
xf_cccurve=gain
xfin_hicc1=84
xfin_locc1=43
xfout_hicc1=125
xfout_locc1=84

<region>
hikey=a#2
hivel=127
lokey=a2
lovel=0
offset=114
pitch_keycenter=a#2
sample=Cellos_pizzicato_MF_A#2_RR2.opus
</region>

<region>
hikey=a#3
hivel=127
lokey=a3
lovel=0
pitch_keycenter=a#3
sample=Cellos_pizzicato_MF_A#3_RR2.opus
</region>

<region>
hikey=a#4
hivel=127
lokey=a4
lovel=0
offset=2011
pitch_keycenter=a#4
sample=Cellos_pizzicato_MF_A#4_RR2.opus
</region>

<region>
hikey=c3
hivel=127
lokey=b2
lovel=0
pitch_keycenter=c3
sample=Cellos_pizzicato_MF_C3_RR2.opus
</region>

<region>
hikey=c4
hivel=127
lokey=b3
lovel=0
pitch_keycenter=c4
sample=Cellos_pizzicato_MF_C4_RR2.opus
</region>

<region>
hikey=c5
hivel=127
lokey=b4
lovel=0
offset=807
pitch_keycenter=c5
sample=Cellos_pizzicato_MF_C5_RR2.opus
</region>

<region>
hikey=d3
hivel=127
lokey=c#3
lovel=0
pitch_keycenter=d3
sample=Cellos_pizzicato_MF_D3_RR2.opus
</region>

<region>
hikey=d4
hivel=127
lokey=c#4
lovel=0
offset=299
pitch_keycenter=d4
sample=Cellos_pizzicato_MF_D4_RR2.opus
</region>

<region>
hikey=d5
hivel=127
lokey=c#5
lovel=0
offset=1574
pitch_keycenter=d5
sample=Cellos_pizzicato_MF_D5_RR2.opus
</region>

<region>
hikey=e3
hivel=127
lokey=d#3
lovel=0
offset=5
pitch_keycenter=e3
sample=Cellos_pizzicato_MF_E3_RR2.opus
</region>

<region>
hikey=e4
hivel=127
lokey=d#4
lovel=0
pitch_keycenter=e4
sample=Cellos_pizzicato_MF_E4_RR2.opus
</region>

<region>
hikey=F6
hivel=127
lokey=d#5
lovel=0
offset=1665
pitch_keycenter=E5
sample=Cellos_pizzicato_MF_E5_RR2.opus
</region>

<region>
hikey=f#3
hivel=127
lokey=f3
lovel=0
pitch_keycenter=f#3
sample=Cellos_pizzicato_MF_F#3_RR2.opus
</region>

<region>
hikey=f#4
hivel=127
lokey=f4
lovel=0
pitch_keycenter=f#4
sample=Cellos_pizzicato_MF_F#4_RR2.opus
</region>

<region>
hikey=g#3
hivel=127
lokey=g3
lovel=0
pitch_keycenter=g#3
sample=Cellos_pizzicato_MF_G#3_RR2.opus
</region>

<region>
hikey=g#4
hivel=127
lokey=g4
lovel=0
pitch_keycenter=g#4
sample=Cellos_pizzicato_MF_G#4_RR2.opus
</region>

<region>
hivel=127
key=c2
lovel=0
offset=73
sample=Cellos_pizzicato_MF_C2_RR2.opus
</region>

<region>
hikey=d2
hivel=127
lokey=c#2
lovel=0
pitch_keycenter=d2
sample=Cellos_pizzicato_MF_D2_RR2.opus
</region>

<region>
hikey=e2
hivel=127
lokey=d#2
lovel=0
offset=701
pitch_keycenter=e2
sample=Cellos_pizzicato_MF_E2_RR2.opus
</region>

<region>
hikey=f#2
hivel=127
lokey=f2
lovel=0
pitch_keycenter=f#2
sample=Cellos_pizzicato_MF_F#2_RR2.opus
</region>

<region>
hikey=g#2
hivel=127
lokey=g2
lovel=0
pitch_keycenter=g#2
sample=Cellos_pizzicato_MF_G#2_RR2.opus
</region>
</group>

<group>
group_label=RR2_85-127
seq_length=4
seq_position=2
xf_cccurve=gain
xfin_hicc1=127
xfin_locc1=85
xfout_hicc1=127
xfout_locc1=127

<region>
hikey=a#2
hivel=127
lokey=a2
lovel=0
pitch_keycenter=a#2
sample=Cellos_pizzicato_FF_A#2_RR2.opus
</region>

<region>
hikey=a#3
hivel=127
lokey=a3
lovel=0
pitch_keycenter=a#3
sample=Cellos_pizzicato_FF_A#3_RR2.opus
</region>

<region>
hikey=a#4
hivel=127
lokey=a4
lovel=0
pitch_keycenter=a#4
sample=Cellos_pizzicato_FF_A#4_RR2.opus
</region>

<region>
hivel=127
key=c2
lovel=0
sample=Cellos_pizzicato_FF_C2_RR2.opus
</region>

<region>
hikey=c3
hivel=127
lokey=b2
lovel=0
pitch_keycenter=c3
sample=Cellos_pizzicato_FF_C3_RR2.opus
</region>

<region>
hikey=c4
hivel=127
lokey=b3
lovel=0
pitch_keycenter=c4
sample=Cellos_pizzicato_FF_C4_RR2.opus
</region>

<region>
hikey=c5
hivel=127
lokey=b4
lovel=0
pitch_keycenter=c5
sample=Cellos_pizzicato_FF_C5_RR2.opus
</region>

<region>
hikey=d2
hivel=127
lokey=c#2
lovel=0
pitch_keycenter=d2
sample=Cellos_pizzicato_FF_D2_RR2.opus
</region>

<region>
hikey=d3
hivel=127
lokey=c#3
lovel=0
offset=113
pitch_keycenter=d3
sample=Cellos_pizzicato_FF_D3_RR2.opus
</region>

<region>
hikey=d4
hivel=127
lokey=c#4
lovel=0
pitch_keycenter=d4
sample=Cellos_pizzicato_FF_D4_RR2.opus
</region>

<region>
hikey=d5
hivel=127
lokey=c#5
lovel=0
pitch_keycenter=d5
sample=Cellos_pizzicato_FF_D5_RR2.opus
</region>

<region>
hikey=e2
hivel=127
lokey=d#2
lovel=0
offset=340
pitch_keycenter=e2
sample=Cellos_pizzicato_FF_E2_RR2.opus
</region>

<region>
hikey=e3
hivel=127
lokey=d#3
lovel=0
pitch_keycenter=e3
sample=Cellos_pizzicato_FF_E3_RR2.opus
</region>

<region>
hikey=e4
hivel=127
lokey=d#4
lovel=0
pitch_keycenter=e4
sample=Cellos_pizzicato_FF_E4_RR2.opus
</region>

<region>
hikey=F6
hivel=127
lokey=d#5
lovel=0
pitch_keycenter=E5
sample=Cellos_pizzicato_FF_E5_RR2.opus
</region>

<region>
hikey=f#2
hivel=127
lokey=f2
lovel=0
pitch_keycenter=f#2
sample=Cellos_pizzicato_FF_F#2_RR2.opus
</region>

<region>
hikey=f#3
hivel=127
lokey=f3
lovel=0
pitch_keycenter=f#3
sample=Cellos_pizzicato_FF_F#3_RR2.opus
</region>

<region>
hikey=f#4
hivel=127
lokey=f4
lovel=0
pitch_keycenter=f#4
sample=Cellos_pizzicato_FF_F#4_RR2.opus
</region>

<region>
hikey=g#2
hivel=127
lokey=g2
lovel=0
pitch_keycenter=g#2
sample=Cellos_pizzicato_FF_G#2_RR2.opus
</region>

<region>
hikey=g#3
hivel=127
lokey=g3
lovel=0
pitch_keycenter=g#3
sample=Cellos_pizzicato_FF_G#3_RR2.opus
</region>

<region>
hikey=g#4
hivel=127
lokey=g4
lovel=0
pitch_keycenter=g#4
sample=Cellos_pizzicato_FF_G#4_RR2.opus
</region>
</group>

<group>
group_label=RR3_0-42
seq_length=4
seq_position=3
xf_cccurve=gain
xfin_hicc1=42
xfout_hicc1=84
xfout_locc1=42

<region>
hikey=a#2
hivel=127
lokey=a2
lovel=0
pitch_keycenter=a#2
sample=Cellos_pizzicato_PP_A#2_RR3.opus
</region>

<region>
hikey=a#3
hivel=127
lokey=a3
lovel=0
pitch_keycenter=a#3
sample=Cellos_pizzicato_PP_A#3_RR3.opus
</region>

<region>
hikey=a#4
hivel=127
lokey=a4
lovel=0
offset=1885
pitch_keycenter=a#4
sample=Cellos_pizzicato_PP_A#4_RR3.opus
</region>

<region>
hivel=127
key=c2
lovel=0
offset=3072
sample=Cellos_pizzicato_PP_C2_RR3.opus
</region>

<region>
hikey=c3
hivel=127
lokey=b2
lovel=0
offset=3489
pitch_keycenter=c3
sample=Cellos_pizzicato_PP_C3_RR3.opus
</region>

<region>
hikey=c4
hivel=127
lokey=b3
lovel=0
pitch_keycenter=c4
sample=Cellos_pizzicato_PP_C4_RR3.opus
</region>

<region>
hikey=c5
hivel=127
lokey=b4
lovel=0
offset=2905
pitch_keycenter=c5
sample=Cellos_pizzicato_PP_C5_RR3.opus
</region>

<region>
hikey=d2
hivel=127
lokey=c#2
lovel=0
offset=2016
pitch_keycenter=d2
sample=Cellos_pizzicato_PP_D2_RR3.opus
</region>

<region>
hikey=d3
hivel=127
lokey=c#3
lovel=0
pitch_keycenter=d3
sample=Cellos_pizzicato_PP_D3_RR3.opus
</region>

<region>
hikey=d4
hivel=127
lokey=c#4
lovel=0
offset=2070
pitch_keycenter=d4
sample=Cellos_pizzicato_PP_D4_RR3.opus
</region>

<region>
hikey=d5
hivel=127
lokey=c#5
lovel=0
offset=2093
pitch_keycenter=d5
sample=Cellos_pizzicato_PP_D5_RR3.opus
</region>

<region>
hikey=e2
hivel=127
lokey=d#2
lovel=0
pitch_keycenter=e2
sample=Cellos_pizzicato_PP_E2_RR3.opus
</region>

<region>
hikey=e3
hivel=127
lokey=d#3
lovel=0
pitch_keycenter=e3
sample=Cellos_pizzicato_PP_E3_RR3.opus
</region>

<region>
hikey=e4
hivel=127
lokey=d#4
lovel=0
pitch_keycenter=e4
sample=Cellos_pizzicato_PP_E4_RR3.opus
</region>

<region>
hikey=F6
hivel=127
lokey=d#5
lovel=0
offset=2671
pitch_keycenter=E5
sample=Cellos_pizzicato_PP_E5_RR3.opus
</region>

<region>
hikey=f#2
hivel=127
lokey=f2
lovel=0
offset=1172
pitch_keycenter=f#2
sample=Cellos_pizzicato_PP_F#2_RR3.opus
</region>

<region>
hikey=f#3
hivel=127
lokey=f3
lovel=0
offset=270
pitch_keycenter=f#3
sample=Cellos_pizzicato_PP_F#3_RR3.opus
</region>

<region>
hikey=f#4
hivel=127
lokey=f4
lovel=0
offset=2873
pitch_keycenter=f#4
sample=Cellos_pizzicato_PP_F#4_RR3.opus
</region>

<region>
hikey=g#2
hivel=127
lokey=g2
lovel=0
pitch_keycenter=g#2
sample=Cellos_pizzicato_PP_G#2_RR3.opus
</region>

<region>
hikey=g#3
hivel=127
lokey=g3
lovel=0
offset=7
pitch_keycenter=g#3
sample=Cellos_pizzicato_PP_G#3_RR3.opus
</region>

<region>
hikey=g#4
hivel=127
lokey=g4
lovel=0
offset=4527
pitch_keycenter=g#4
sample=Cellos_pizzicato_PP_G#4_RR3.opus
</region>
</group>

<group>
group_label=RR3_43-84
seq_length=4
seq_position=3
xf_cccurve=gain
xfin_hicc1=84
xfin_locc1=43
xfout_hicc1=125
xfout_locc1=84

<region>
hikey=a#2
hivel=127
lokey=a2
lovel=0
pitch_keycenter=a#2
sample=Cellos_pizzicato_MF_A#2_RR3.opus
</region>

<region>
hikey=a#3
hivel=127
lokey=a3
lovel=0
pitch_keycenter=a#3
sample=Cellos_pizzicato_MF_A#3_RR3.opus
</region>

<region>
hikey=a#4
hivel=127
lokey=a4
lovel=0
pitch_keycenter=a#4
sample=Cellos_pizzicato_MF_A#4_RR3.opus
</region>

<region>
hikey=c3
hivel=127
lokey=b2
lovel=0
pitch_keycenter=c3
sample=Cellos_pizzicato_MF_C3_RR3.opus
</region>

<region>
hikey=c4
hivel=127
lokey=b3
lovel=0
pitch_keycenter=c4
sample=Cellos_pizzicato_MF_C4_RR3.opus
</region>

<region>
hikey=c5
hivel=127
lokey=b4
lovel=0
offset=1742
pitch_keycenter=c5
sample=Cellos_pizzicato_MF_C5_RR3.opus
</region>

<region>
hikey=d3
hivel=127
lokey=c#3
lovel=0
pitch_keycenter=d3
sample=Cellos_pizzicato_MF_D3_RR3.opus
</region>

<region>
hikey=d4
hivel=127
lokey=c#4
lovel=0
offset=2618
pitch_keycenter=d4
sample=Cellos_pizzicato_MF_D4_RR3.opus
</region>

<region>
hikey=d5
hivel=127
lokey=c#5
lovel=0
offset=891
pitch_keycenter=d5
sample=Cellos_pizzicato_MF_D5_RR3.opus
</region>

<region>
hikey=e3
hivel=127
lokey=d#3
lovel=0
pitch_keycenter=e3
sample=Cellos_pizzicato_MF_E3_RR3.opus
</region>

<region>
hikey=e4
hivel=127
lokey=d#4
lovel=0
pitch_keycenter=e4
sample=Cellos_pizzicato_MF_E4_RR3.opus
</region>

<region>
hikey=F6
hivel=127
lokey=d#5
lovel=0
offset=1587
pitch_keycenter=E5
sample=Cellos_pizzicato_MF_E5_RR3.opus
</region>

<region>
hikey=f#3
hivel=127
lokey=f3
lovel=0
offset=6
pitch_keycenter=f#3
sample=Cellos_pizzicato_MF_F#3_RR3.opus
</region>

<region>
hikey=f#4
hivel=127
lokey=f4
lovel=0
pitch_keycenter=f#4
sample=Cellos_pizzicato_MF_F#4_RR3.opus
</region>

<region>
hikey=g#3
hivel=127
lokey=g3
lovel=0
offset=114
pitch_keycenter=g#3
sample=Cellos_pizzicato_MF_G#3_RR3.opus
</region>

<region>
hikey=g#4
hivel=127
lokey=g4
lovel=0
pitch_keycenter=g#4
sample=Cellos_pizzicato_MF_G#4_RR3.opus
</region>

<region>
hivel=127
key=c2
lovel=0
offset=3056
sample=Cellos_pizzicato_MF_C2_RR3.opus
</region>

<region>
hikey=d2
hivel=127
lokey=c#2
lovel=0
pitch_keycenter=d2
sample=Cellos_pizzicato_MF_D2_RR3.opus
</region>

<region>
hikey=e2
hivel=127
lokey=d#2
lovel=0
pitch_keycenter=e2
sample=Cellos_pizzicato_MF_E2_RR3.opus
</region>

<region>
hikey=f#2
hivel=127
lokey=f2
lovel=0
pitch_keycenter=f#2
sample=Cellos_pizzicato_MF_F#2_RR3.opus
</region>

<region>
hikey=g#2
hivel=127
lokey=g2
lovel=0
pitch_keycenter=g#2
sample=Cellos_pizzicato_MF_G#2_RR3.opus
</region>
</group>

<group>
group_label=RR3_85-127
seq_length=4
seq_position=3
xf_cccurve=gain
xfin_hicc1=127
xfin_locc1=85
xfout_hicc1=127
xfout_locc1=127

<region>
hikey=a#2
hivel=127
lokey=a2
lovel=0
pitch_keycenter=a#2
sample=Cellos_pizzicato_FF_A#2_RR3.opus
</region>

<region>
hikey=a#3
hivel=127
lokey=a3
lovel=0
pitch_keycenter=a#3
sample=Cellos_pizzicato_FF_A#3_RR3.opus
</region>

<region>
hikey=a#4
hivel=127
lokey=a4
lovel=0
pitch_keycenter=a#4
sample=Cellos_pizzicato_FF_A#4_RR3.opus
</region>

<region>
hivel=127
key=c2
lovel=0
sample=Cellos_pizzicato_FF_C2_RR3.opus
</region>

<region>
hikey=c3
hivel=127
lokey=b2
lovel=0
pitch_keycenter=c3
sample=Cellos_pizzicato_FF_C3_RR3.opus
</region>

<region>
hikey=c4
hivel=127
lokey=b3
lovel=0
pitch_keycenter=c4
sample=Cellos_pizzicato_FF_C4_RR3.opus
</region>

<region>
hikey=c5
hivel=127
lokey=b4
lovel=0
pitch_keycenter=c5
sample=Cellos_pizzicato_FF_C5_RR3.opus
</region>

<region>
hikey=d2
hivel=127
lokey=c#2
lovel=0
pitch_keycenter=d2
sample=Cellos_pizzicato_FF_D2_RR3.opus
</region>

<region>
hikey=d3
hivel=127
lokey=c#3
lovel=0
offset=113
pitch_keycenter=d3
sample=Cellos_pizzicato_FF_D3_RR3.opus
</region>

<region>
hikey=d4
hivel=127
lokey=c#4
lovel=0
pitch_keycenter=d4
sample=Cellos_pizzicato_FF_D4_RR3.opus
</region>

<region>
hikey=d5
hivel=127
lokey=c#5
lovel=0
pitch_keycenter=d5
sample=Cellos_pizzicato_FF_D5_RR3.opus
</region>

<region>
hikey=e2
hivel=127
lokey=d#2
lovel=0
pitch_keycenter=e2
sample=Cellos_pizzicato_FF_E2_RR3.opus
</region>

<region>
hikey=e3
hivel=127
lokey=d#3
lovel=0
pitch_keycenter=e3
sample=Cellos_pizzicato_FF_E3_RR3.opus
</region>

<region>
hikey=e4
hivel=127
lokey=d#4
lovel=0
pitch_keycenter=e4
sample=Cellos_pizzicato_FF_E4_RR3.opus
</region>

<region>
hikey=F6
hivel=127
lokey=d#5
lovel=0
pitch_keycenter=E5
sample=Cellos_pizzicato_FF_E5_RR3.opus
</region>

<region>
hikey=f#2
hivel=127
lokey=f2
lovel=0
pitch_keycenter=f#2
sample=Cellos_pizzicato_FF_F#2_RR3.opus
</region>

<region>
hikey=f#3
hivel=127
lokey=f3
lovel=0
pitch_keycenter=f#3
sample=Cellos_pizzicato_FF_F#3_RR3.opus
</region>

<region>
hikey=f#4
hivel=127
lokey=f4
lovel=0
pitch_keycenter=f#4
sample=Cellos_pizzicato_FF_F#4_RR3.opus
</region>

<region>
hikey=g#2
hivel=127
lokey=g2
lovel=0
pitch_keycenter=g#2
sample=Cellos_pizzicato_FF_G#2_RR3.opus
</region>

<region>
hikey=g#3
hivel=127
lokey=g3
lovel=0
pitch_keycenter=g#3
sample=Cellos_pizzicato_FF_G#3_RR3.opus
</region>

<region>
hikey=g#4
hivel=127
lokey=g4
lovel=0
pitch_keycenter=g#4
sample=Cellos_pizzicato_FF_G#4_RR3.opus
</region>
</group>

<group>
group_label=RR4_0-42
seq_length=4
seq_position=4
xf_cccurve=gain
xfin_hicc1=42
xfout_hicc1=84
xfout_locc1=42

<region>
hikey=a#2
hivel=127
lokey=a2
lovel=0
pitch_keycenter=a#2
sample=Cellos_pizzicato_PP_A#2_RR4.opus
</region>

<region>
hikey=a#3
hivel=127
lokey=a3
lovel=0
pitch_keycenter=a#3
sample=Cellos_pizzicato_PP_A#3_RR4.opus
</region>

<region>
hikey=a#4
hivel=127
lokey=a4
lovel=0
offset=924
pitch_keycenter=a#4
sample=Cellos_pizzicato_PP_A#4_RR4.opus
</region>

<region>
hivel=127
key=c2
lovel=0
sample=Cellos_pizzicato_PP_C2_RR4.opus
</region>

<region>
hikey=c3
hivel=127
lokey=b2
lovel=0
pitch_keycenter=c3
sample=Cellos_pizzicato_PP_C3_RR4.opus
</region>

<region>
hikey=c4
hivel=127
lokey=b3
lovel=0
offset=2926
pitch_keycenter=c4
sample=Cellos_pizzicato_PP_C4_RR4.opus
</region>

<region>
hikey=c5
hivel=127
lokey=b4
lovel=0
offset=2872
pitch_keycenter=c5
sample=Cellos_pizzicato_PP_C5_RR4.opus
</region>

<region>
hikey=d2
hivel=127
lokey=c#2
lovel=0
pitch_keycenter=d2
sample=Cellos_pizzicato_PP_D2_RR4.opus
</region>

<region>
hikey=d3
hivel=127
lokey=c#3
lovel=0
pitch_keycenter=d3
sample=Cellos_pizzicato_PP_D3_RR4.opus
</region>

<region>
hikey=d4
hivel=127
lokey=c#4
lovel=0
offset=1714
pitch_keycenter=d4
sample=Cellos_pizzicato_PP_D4_RR4.opus
</region>

<region>
hikey=d5
hivel=127
lokey=c#5
lovel=0
offset=2657
pitch_keycenter=d5
sample=Cellos_pizzicato_PP_D5_RR4.opus
</region>

<region>
hikey=e2
hivel=127
lokey=d#2
lovel=0
pitch_keycenter=e2
sample=Cellos_pizzicato_PP_E2_RR4.opus
</region>

<region>
hikey=e3
hivel=127
lokey=d#3
lovel=0
offset=223
pitch_keycenter=e3
sample=Cellos_pizzicato_PP_E3_RR4.opus
</region>

<region>
hikey=e4
hivel=127
lokey=d#4
lovel=0
offset=4299
pitch_keycenter=e4
sample=Cellos_pizzicato_PP_E4_RR4.opus
</region>

<region>
hikey=F6
hivel=127
lokey=d#5
lovel=0
offset=3707
pitch_keycenter=E5
sample=Cellos_pizzicato_PP_E5_RR4.opus
</region>

<region>
hikey=f#2
hivel=127
lokey=f2
lovel=0
pitch_keycenter=f#2
sample=Cellos_pizzicato_PP_F#2_RR4.opus
</region>

<region>
hikey=f#3
hivel=127
lokey=f3
lovel=0
pitch_keycenter=f#3
sample=Cellos_pizzicato_PP_F#3_RR4.opus
</region>

<region>
hikey=f#4
hivel=127
lokey=f4
lovel=0
offset=153
pitch_keycenter=f#4
sample=Cellos_pizzicato_PP_F#4_RR4.opus
</region>

<region>
hikey=g#2
hivel=127
lokey=g2
lovel=0
offset=903
pitch_keycenter=g#2
sample=Cellos_pizzicato_PP_G#2_RR4.opus
</region>

<region>
hikey=g#3
hivel=127
lokey=g3
lovel=0
pitch_keycenter=g#3
sample=Cellos_pizzicato_PP_G#3_RR4.opus
</region>

<region>
hikey=g#4
hivel=127
lokey=g4
lovel=0
pitch_keycenter=g#4
sample=Cellos_pizzicato_PP_G#4_RR4.opus
</region>
</group>

<group>
group_label=RR4_43-84
seq_length=4
seq_position=4
xf_cccurve=gain
xfin_hicc1=84
xfin_locc1=43
xfout_hicc1=125
xfout_locc1=84

<region>
hikey=a#2
hivel=127
lokey=a2
lovel=0
offset=131
pitch_keycenter=a#2
sample=Cellos_pizzicato_MF_A#2_RR4.opus
</region>

<region>
hikey=a#3
hivel=127
lokey=a3
lovel=0
pitch_keycenter=a#3
sample=Cellos_pizzicato_MF_A#3_RR4.opus
</region>

<region>
hikey=a#4
hivel=127
lokey=a4
lovel=0
offset=2252
pitch_keycenter=a#4
sample=Cellos_pizzicato_MF_A#4_RR4.opus
</region>

<region>
hikey=c3
hivel=127
lokey=b2
lovel=0
pitch_keycenter=c3
sample=Cellos_pizzicato_MF_C3_RR4.opus
</region>

<region>
hikey=c4
hivel=127
lokey=b3
lovel=0
pitch_keycenter=c4
sample=Cellos_pizzicato_MF_C4_RR4.opus
</region>

<region>
hikey=c5
hivel=127
lokey=b4
lovel=0
pitch_keycenter=c5
sample=Cellos_pizzicato_MF_C5_RR4.opus
</region>

<region>
hikey=d3
hivel=127
lokey=c#3
lovel=0
pitch_keycenter=d3
sample=Cellos_pizzicato_MF_D3_RR4.opus
</region>

<region>
hikey=d4
hivel=127
lokey=c#4
lovel=0
pitch_keycenter=d4
sample=Cellos_pizzicato_MF_D4_RR4.opus
</region>

<region>
hikey=d5
hivel=127
lokey=c#5
lovel=0
offset=2623
pitch_keycenter=d5
sample=Cellos_pizzicato_MF_D5_RR4.opus
</region>

<region>
hikey=e3
hivel=127
lokey=d#3
lovel=0
pitch_keycenter=e3
sample=Cellos_pizzicato_MF_E3_RR4.opus
</region>

<region>
hikey=e4
hivel=127
lokey=d#4
lovel=0
pitch_keycenter=e4
sample=Cellos_pizzicato_MF_E4_RR4.opus
</region>

<region>
hikey=F6
hivel=127
lokey=d#5
lovel=0
offset=3180
pitch_keycenter=E5
sample=Cellos_pizzicato_MF_E5_RR4.opus
</region>

<region>
hikey=f#3
hivel=127
lokey=f3
lovel=0
pitch_keycenter=f#3
sample=Cellos_pizzicato_MF_F#3_RR4.opus
</region>

<region>
hikey=f#4
hivel=127
lokey=f4
lovel=0
pitch_keycenter=f#4
sample=Cellos_pizzicato_MF_F#4_RR4.opus
</region>

<region>
hikey=g#2
hivel=127
lokey=g2
lovel=0
offset=198
pitch_keycenter=g#2
sample=Cellos_pizzicato_MF_G#2_RR4.opus
</region>

<region>
hikey=g#3
hivel=127
lokey=g3
lovel=0
pitch_keycenter=g#3
sample=Cellos_pizzicato_MF_G#3_RR4.opus
</region>

<region>
hikey=g#4
hivel=127
lokey=g4
lovel=0
pitch_keycenter=g#4
sample=Cellos_pizzicato_MF_G#4_RR4.opus
</region>

<region>
hivel=127
key=c2
lovel=0
sample=Cellos_pizzicato_MF_C2_RR4.opus
</region>

<region>
hikey=d2
hivel=127
lokey=c#2
lovel=0
pitch_keycenter=d2
sample=Cellos_pizzicato_MF_D2_RR4.opus
</region>

<region>
hikey=e2
hivel=127
lokey=d#2
lovel=0
pitch_keycenter=e2
sample=Cellos_pizzicato_MF_E2_RR4.opus
</region>

<region>
hikey=f#2
hivel=127
lokey=f2
lovel=0
pitch_keycenter=f#2
sample=Cellos_pizzicato_MF_F#2_RR4.opus
</region>
</group>

<group>
group_label=RR4_85-127
seq_length=4
seq_position=4
xf_cccurve=gain
xfin_hicc1=127
xfin_locc1=85
xfout_hicc1=127
xfout_locc1=127

<region>
hikey=a#2
hivel=127
lokey=a2
lovel=0
pitch_keycenter=a#2
sample=Cellos_pizzicato_FF_A#2_RR4.opus
</region>

<region>
hikey=a#3
hivel=127
lokey=a3
lovel=0
pitch_keycenter=a#3
sample=Cellos_pizzicato_FF_A#3_RR4.opus
</region>

<region>
hikey=a#4
hivel=127
lokey=a4
lovel=0
pitch_keycenter=a#4
sample=Cellos_pizzicato_FF_A#4_RR4.opus
</region>

<region>
hivel=127
key=c2
lovel=0
sample=Cellos_pizzicato_FF_C2_RR4.opus
</region>

<region>
hikey=c3
hivel=127
lokey=b2
lovel=0
pitch_keycenter=c3
sample=Cellos_pizzicato_FF_C3_RR4.opus
</region>

<region>
hikey=c4
hivel=127
lokey=b3
lovel=0
pitch_keycenter=c4
sample=Cellos_pizzicato_FF_C4_RR4.opus
</region>

<region>
hikey=c5
hivel=127
lokey=b4
lovel=0
pitch_keycenter=c5
sample=Cellos_pizzicato_FF_C5_RR4.opus
</region>

<region>
hikey=d2
hivel=127
lokey=c#2
lovel=0
pitch_keycenter=d2
sample=Cellos_pizzicato_FF_D2_RR4.opus
</region>

<region>
hikey=d3
hivel=127
lokey=c#3
lovel=0
pitch_keycenter=d3
sample=Cellos_pizzicato_FF_D3_RR4.opus
</region>

<region>
hikey=d4
hivel=127
lokey=c#4
lovel=0
pitch_keycenter=d4
sample=Cellos_pizzicato_FF_D4_RR4.opus
</region>

<region>
hikey=d5
hivel=127
lokey=c#5
lovel=0
pitch_keycenter=d5
sample=Cellos_pizzicato_FF_D5_RR4.opus
</region>

<region>
hikey=e2
hivel=127
lokey=d#2
lovel=0
pitch_keycenter=e2
sample=Cellos_pizzicato_FF_E2_RR4.opus
</region>

<region>
hikey=e3
hivel=127
lokey=d#3
lovel=0
offset=71
pitch_keycenter=e3
sample=Cellos_pizzicato_FF_E3_RR4.opus
</region>

<region>
hikey=e4
hivel=127
lokey=d#4
lovel=0
pitch_keycenter=e4
sample=Cellos_pizzicato_FF_E4_RR4.opus
</region>

<region>
hikey=F6
hivel=127
lokey=d#5
lovel=0
pitch_keycenter=E5
sample=Cellos_pizzicato_FF_E5_RR4.opus
</region>

<region>
hikey=f#2
hivel=127
lokey=f2
lovel=0
pitch_keycenter=f#2
sample=Cellos_pizzicato_FF_F#2_RR4.opus
</region>

<region>
hikey=f#3
hivel=127
lokey=f3
lovel=0
offset=48
pitch_keycenter=f#3
sample=Cellos_pizzicato_FF_F#3_RR4.opus
</region>

<region>
hikey=f#4
hivel=127
lokey=f4
lovel=0
pitch_keycenter=f#4
sample=Cellos_pizzicato_FF_F#4_RR4.opus
</region>

<region>
hikey=g#2
hivel=127
lokey=g2
lovel=0
pitch_keycenter=g#2
sample=Cellos_pizzicato_FF_G#2_RR4.opus
</region>

<region>
hikey=g#3
hivel=127
lokey=g3
lovel=0
pitch_keycenter=g#3
sample=Cellos_pizzicato_FF_G#3_RR4.opus
</region>

<region>
hikey=g#4
hivel=127
lokey=g4
lovel=0
pitch_keycenter=g#4
sample=Cellos_pizzicato_FF_G#4_RR4.opus
</region>
</group>